<?xml version="1.0" standalone="no"?>
<!DOCTYPE svg PUBLIC "-//W3C//DTD SVG 20010904//EN"
 "http://www.w3.org/TR/2001/REC-SVG-20010904/DTD/svg10.dtd">
<svg version="1.0" xmlns="http://www.w3.org/2000/svg"
 width="225.000000pt" height="225.000000pt" viewBox="0 0 225.000000 225.000000"
 preserveAspectRatio="xMidYMid meet">

<g transform="translate(0.000000,225.000000) scale(0.100000,-0.100000)"
fill="#000000" stroke="none">
<path d="M938 2154 c-293 -53 -578 -263 -716 -529 -94 -182 -117 -278 -117
-490 0 -145 4 -182 23 -254 52 -190 141 -342 282 -481 225 -222 486 -312 807
-280 266 27 393 76 558 214 216 181 339 397 376 655 15 109 6 290 -21 401 -22
91 -84 231 -145 326 -49 77 -241 268 -261 260 -8 -3 -12 -1 -9 4 13 20 -167
112 -290 148 -145 43 -339 53 -487 26z m243 -558 c26 -8 62 -22 80 -32 55 -28
463 -265 473 -274 14 -14 -63 -25 -174 -24 -93 0 -114 4 -180 30 -70 28 -146
74 -264 159 -36 26 -58 35 -89 35 -81 0 -147 -78 -132 -157 9 -53 37 -79 112
-104 80 -26 93 -39 93 -94 0 -81 24 -75 -316 -75 l-304 0 0 38 c0 55 26 148
61 218 115 229 398 353 640 280z m594 -428 c-22 -152 -63 -244 -148 -334 -33
-36 -80 -77 -104 -91 -24 -14 -40 -30 -36 -35 3 -7 1 -8 -5 -4 -7 4 -44 -5
-84 -20 -61 -23 -89 -27 -173 -27 -133 -1 -178 16 -417 155 -106 61 -217 125
-247 141 -52 29 -53 31 -30 40 48 19 210 20 279 2 81 -21 193 -80 288 -152 55
-42 83 -57 116 -60 82 -10 146 50 146 135 0 67 -27 97 -109 122 -38 11 -74 26
-80 34 -18 21 -24 78 -12 109 l11 27 306 0 306 0 -7 -42z"/>
</g>
</svg>
